<svg width="198" height="97" viewBox="0 0 198 97" fill="none" xmlns="http://www.w3.org/2000/svg">
<path d="M43.496 8.912C45.032 8.912 46.4 9.236 47.6 9.884C48.8 10.508 49.748 11.456 50.444 12.728C51.14 14 51.488 15.548 51.488 17.372V29H48.248V17.84C48.248 15.872 47.756 14.372 46.772 13.34C45.812 12.284 44.504 11.756 42.848 11.756C41.144 11.756 39.788 12.308 38.78 13.412C37.772 14.492 37.268 16.064 37.268 18.128V29H34.028V17.84C34.028 15.872 33.536 14.372 32.552 13.34C31.592 12.284 30.284 11.756 28.628 11.756C26.924 11.756 25.568 12.308 24.56 13.412C23.552 14.492 23.048 16.064 23.048 18.128V29H19.772V9.272H23.048V12.116C23.696 11.084 24.56 10.292 25.64 9.74C26.744 9.188 27.956 8.912 29.276 8.912C30.932 8.912 32.396 9.284 33.668 10.028C34.94 10.772 35.888 11.864 36.512 13.304C37.064 11.912 37.976 10.832 39.248 10.064C40.52 9.296 41.936 8.912 43.496 8.912ZM55.6378 19.064C55.6378 17.048 56.0458 15.284 56.8618 13.772C57.6778 12.236 58.7938 11.048 60.2098 10.208C61.6498 9.368 63.2458 8.948 64.9978 8.948C66.7258 8.948 68.2258 9.32 69.4978 10.064C70.7698 10.808 71.7178 11.744 72.3418 12.872V9.272H75.6538V29H72.3418V25.328C71.6938 26.48 70.7218 27.44 69.4258 28.208C68.1538 28.952 66.6658 29.324 64.9618 29.324C63.2098 29.324 61.6258 28.892 60.2098 28.028C58.7938 27.164 57.6778 25.952 56.8618 24.392C56.0458 22.832 55.6378 21.056 55.6378 19.064ZM72.3418 19.1C72.3418 17.612 72.0418 16.316 71.4418 15.212C70.8418 14.108 70.0258 13.268 68.9938 12.692C67.9858 12.092 66.8698 11.792 65.6458 11.792C64.4218 11.792 63.3058 12.08 62.2978 12.656C61.2898 13.232 60.4858 14.072 59.8858 15.176C59.2858 16.28 58.9858 17.576 58.9858 19.064C58.9858 20.576 59.2858 21.896 59.8858 23.024C60.4858 24.128 61.2898 24.98 62.2978 25.58C63.3058 26.156 64.4218 26.444 65.6458 26.444C66.8698 26.444 67.9858 26.156 68.9938 25.58C70.0258 24.98 70.8418 24.128 71.4418 23.024C72.0418 21.896 72.3418 20.588 72.3418 19.1ZM85.186 11.972V23.6C85.186 24.56 85.39 25.244 85.798 25.652C86.206 26.036 86.914 26.228 87.922 26.228H90.334V29H87.382C85.558 29 84.19 28.58 83.278 27.74C82.366 26.9 81.91 25.52 81.91 23.6V11.972H79.354V9.272H81.91V4.304H85.186V9.272H90.334V11.972H85.186ZM104.095 8.912C105.583 8.912 106.927 9.236 108.127 9.884C109.327 10.508 110.263 11.456 110.935 12.728C111.631 14 111.979 15.548 111.979 17.372V29H108.739V17.84C108.739 15.872 108.247 14.372 107.263 13.34C106.279 12.284 104.935 11.756 103.231 11.756C101.503 11.756 100.123 12.296 99.0913 13.376C98.0833 14.456 97.5793 16.028 97.5793 18.092V29H94.3033V2.36H97.5793V12.08C98.2273 11.072 99.1153 10.292 100.243 9.74C101.395 9.188 102.679 8.912 104.095 8.912ZM135.331 18.38C135.331 19.004 135.295 19.664 135.223 20.36H119.455C119.575 22.304 120.235 23.828 121.435 24.932C122.659 26.012 124.135 26.552 125.863 26.552C127.279 26.552 128.455 26.228 129.391 25.58C130.351 24.908 131.023 24.02 131.407 22.916H134.935C134.407 24.812 133.351 26.36 131.767 27.56C130.183 28.736 128.215 29.324 125.863 29.324C123.991 29.324 122.311 28.904 120.823 28.064C119.359 27.224 118.207 26.036 117.367 24.5C116.527 22.94 116.107 21.14 116.107 19.1C116.107 17.06 116.515 15.272 117.331 13.736C118.147 12.2 119.287 11.024 120.751 10.208C122.239 9.368 123.943 8.948 125.863 8.948C127.735 8.948 129.391 9.356 130.831 10.172C132.271 10.988 133.375 12.116 134.143 13.556C134.935 14.972 135.331 16.58 135.331 18.38ZM131.947 17.696C131.947 16.448 131.671 15.38 131.119 14.492C130.567 13.58 129.811 12.896 128.851 12.44C127.915 11.96 126.871 11.72 125.719 11.72C124.063 11.72 122.647 12.248 121.471 13.304C120.319 14.36 119.659 15.824 119.491 17.696H131.947ZM157.151 9.272V29H153.875V26.084C153.251 27.092 152.375 27.884 151.247 28.46C150.143 29.012 148.919 29.288 147.575 29.288C146.039 29.288 144.659 28.976 143.435 28.352C142.211 27.704 141.239 26.744 140.519 25.472C139.823 24.2 139.475 22.652 139.475 20.828V9.272H142.715V20.396C142.715 22.34 143.207 23.84 144.191 24.896C145.175 25.928 146.519 26.444 148.223 26.444C149.975 26.444 151.355 25.904 152.363 24.824C153.371 23.744 153.875 22.172 153.875 20.108V9.272H157.151ZM169.666 29.324C168.154 29.324 166.798 29.072 165.598 28.568C164.398 28.04 163.45 27.32 162.754 26.408C162.058 25.472 161.674 24.404 161.602 23.204H164.986C165.082 24.188 165.538 24.992 166.354 25.616C167.194 26.24 168.286 26.552 169.63 26.552C170.878 26.552 171.862 26.276 172.582 25.724C173.302 25.172 173.662 24.476 173.662 23.636C173.662 22.772 173.278 22.136 172.51 21.728C171.742 21.296 170.554 20.876 168.946 20.468C167.482 20.084 166.282 19.7 165.346 19.316C164.434 18.908 163.642 18.32 162.97 17.552C162.322 16.76 161.998 15.728 161.998 14.456C161.998 13.448 162.298 12.524 162.898 11.684C163.498 10.844 164.35 10.184 165.454 9.704C166.558 9.2 167.818 8.948 169.234 8.948C171.418 8.948 173.182 9.5 174.526 10.604C175.87 11.708 176.59 13.22 176.686 15.14H173.41C173.338 14.108 172.918 13.28 172.15 12.656C171.406 12.032 170.398 11.72 169.126 11.72C167.95 11.72 167.014 11.972 166.318 12.476C165.622 12.98 165.274 13.64 165.274 14.456C165.274 15.104 165.478 15.644 165.886 16.076C166.318 16.484 166.846 16.82 167.47 17.084C168.118 17.324 169.006 17.6 170.134 17.912C171.55 18.296 172.702 18.68 173.59 19.064C174.478 19.424 175.234 19.976 175.858 20.72C176.506 21.464 176.842 22.436 176.866 23.636C176.866 24.716 176.566 25.688 175.966 26.552C175.366 27.416 174.514 28.1 173.41 28.604C172.33 29.084 171.082 29.324 169.666 29.324ZM26.756 83.324C25.244 83.324 23.888 83.072 22.688 82.568C21.488 82.04 20.54 81.32 19.844 80.408C19.148 79.472 18.764 78.404 18.692 77.204H22.076C22.172 78.188 22.628 78.992 23.444 79.616C24.284 80.24 25.376 80.552 26.72 80.552C27.968 80.552 28.952 80.276 29.672 79.724C30.392 79.172 30.752 78.476 30.752 77.636C30.752 76.772 30.368 76.136 29.6 75.728C28.832 75.296 27.644 74.876 26.036 74.468C24.572 74.084 23.372 73.7 22.436 73.316C21.524 72.908 20.732 72.32 20.06 71.552C19.412 70.76 19.088 69.728 19.088 68.456C19.088 67.448 19.388 66.524 19.988 65.684C20.588 64.844 21.44 64.184 22.544 63.704C23.648 63.2 24.908 62.948 26.324 62.948C28.508 62.948 30.272 63.5 31.616 64.604C32.96 65.708 33.68 67.22 33.776 69.14H30.5C30.428 68.108 30.008 67.28 29.24 66.656C28.496 66.032 27.488 65.72 26.216 65.72C25.04 65.72 24.104 65.972 23.408 66.476C22.712 66.98 22.364 67.64 22.364 68.456C22.364 69.104 22.568 69.644 22.976 70.076C23.408 70.484 23.936 70.82 24.56 71.084C25.208 71.324 26.096 71.6 27.224 71.912C28.64 72.296 29.792 72.68 30.68 73.064C31.568 73.424 32.324 73.976 32.948 74.72C33.596 75.464 33.932 76.436 33.956 77.636C33.956 78.716 33.656 79.688 33.056 80.552C32.456 81.416 31.604 82.1 30.5 82.604C29.42 83.084 28.172 83.324 26.756 83.324ZM37.3566 73.064C37.3566 71.048 37.7646 69.284 38.5806 67.772C39.3966 66.236 40.5126 65.048 41.9286 64.208C43.3686 63.368 44.9646 62.948 46.7166 62.948C48.4446 62.948 49.9446 63.32 51.2166 64.064C52.4886 64.808 53.4366 65.744 54.0606 66.872V63.272H57.3726V83H54.0606V79.328C53.4126 80.48 52.4406 81.44 51.1446 82.208C49.8726 82.952 48.3846 83.324 46.6806 83.324C44.9286 83.324 43.3446 82.892 41.9286 82.028C40.5126 81.164 39.3966 79.952 38.5806 78.392C37.7646 76.832 37.3566 75.056 37.3566 73.064ZM54.0606 73.1C54.0606 71.612 53.7606 70.316 53.1606 69.212C52.5606 68.108 51.7446 67.268 50.7126 66.692C49.7046 66.092 48.5886 65.792 47.3646 65.792C46.1406 65.792 45.0246 66.08 44.0166 66.656C43.0086 67.232 42.2046 68.072 41.6046 69.176C41.0046 70.28 40.7046 71.576 40.7046 73.064C40.7046 74.576 41.0046 75.896 41.6046 77.024C42.2046 78.128 43.0086 78.98 44.0166 79.58C45.0246 80.156 46.1406 80.444 47.3646 80.444C48.5886 80.444 49.7046 80.156 50.7126 79.58C51.7446 78.98 52.5606 78.128 53.1606 77.024C53.7606 75.896 54.0606 74.588 54.0606 73.1ZM72.5207 62.912C74.9207 62.912 76.8647 63.644 78.3527 65.108C79.8407 66.548 80.5847 68.636 80.5847 71.372V83H77.3447V71.84C77.3447 69.872 76.8527 68.372 75.8687 67.34C74.8847 66.284 73.5407 65.756 71.8367 65.756C70.1087 65.756 68.7287 66.296 67.6967 67.376C66.6887 68.456 66.1847 70.028 66.1847 72.092V83H62.9087V63.272H66.1847V66.08C66.8327 65.072 67.7087 64.292 68.8127 63.74C69.9407 63.188 71.1767 62.912 72.5207 62.912ZM89.9321 65.972V77.6C89.9321 78.56 90.1361 79.244 90.5441 79.652C90.9521 80.036 91.6601 80.228 92.6681 80.228H95.0801V83H92.1281C90.3041 83 88.9361 82.58 88.0241 81.74C87.1121 80.9 86.6561 79.52 86.6561 77.6V65.972H84.1001V63.272H86.6561V58.304H89.9321V63.272H95.0801V65.972H89.9321ZM107.653 83.324C105.805 83.324 104.125 82.904 102.613 82.064C101.125 81.224 99.9493 80.036 99.0853 78.5C98.2453 76.94 97.8253 75.14 97.8253 73.1C97.8253 71.084 98.2573 69.308 99.1213 67.772C100.009 66.212 101.209 65.024 102.721 64.208C104.233 63.368 105.925 62.948 107.797 62.948C109.669 62.948 111.361 63.368 112.873 64.208C114.385 65.024 115.573 66.2 116.437 67.736C117.325 69.272 117.769 71.06 117.769 73.1C117.769 75.14 117.313 76.94 116.401 78.5C115.513 80.036 114.301 81.224 112.765 82.064C111.229 82.904 109.525 83.324 107.653 83.324ZM107.653 80.444C108.829 80.444 109.933 80.168 110.965 79.616C111.997 79.064 112.825 78.236 113.449 77.132C114.097 76.028 114.421 74.684 114.421 73.1C114.421 71.516 114.109 70.172 113.485 69.068C112.861 67.964 112.045 67.148 111.037 66.62C110.029 66.068 108.937 65.792 107.761 65.792C106.561 65.792 105.457 66.068 104.449 66.62C103.465 67.148 102.673 67.964 102.073 69.068C101.473 70.172 101.173 71.516 101.173 73.1C101.173 74.708 101.461 76.064 102.037 77.168C102.637 78.272 103.429 79.1 104.413 79.652C105.397 80.18 106.477 80.444 107.653 80.444ZM129.061 83.324C127.549 83.324 126.193 83.072 124.993 82.568C123.793 82.04 122.845 81.32 122.149 80.408C121.453 79.472 121.069 78.404 120.997 77.204H124.381C124.477 78.188 124.933 78.992 125.749 79.616C126.589 80.24 127.681 80.552 129.025 80.552C130.273 80.552 131.257 80.276 131.977 79.724C132.697 79.172 133.057 78.476 133.057 77.636C133.057 76.772 132.673 76.136 131.905 75.728C131.137 75.296 129.949 74.876 128.341 74.468C126.877 74.084 125.677 73.7 124.741 73.316C123.829 72.908 123.037 72.32 122.365 71.552C121.717 70.76 121.393 69.728 121.393 68.456C121.393 67.448 121.693 66.524 122.293 65.684C122.893 64.844 123.745 64.184 124.849 63.704C125.953 63.2 127.213 62.948 128.629 62.948C130.813 62.948 132.577 63.5 133.921 64.604C135.265 65.708 135.985 67.22 136.081 69.14H132.805C132.733 68.108 132.313 67.28 131.545 66.656C130.801 66.032 129.793 65.72 128.521 65.72C127.345 65.72 126.409 65.972 125.713 66.476C125.017 66.98 124.669 67.64 124.669 68.456C124.669 69.104 124.873 69.644 125.281 70.076C125.713 70.484 126.241 70.82 126.865 71.084C127.513 71.324 128.401 71.6 129.529 71.912C130.945 72.296 132.097 72.68 132.985 73.064C133.873 73.424 134.629 73.976 135.253 74.72C135.901 75.464 136.237 76.436 136.261 77.636C136.261 78.716 135.961 79.688 135.361 80.552C134.761 81.416 133.909 82.1 132.805 82.604C131.725 83.084 130.477 83.324 129.061 83.324Z" fill="white"/>
<rect y="7" width="8" height="82" fill="#5280E2"/>
</svg>
